<svg width="30" height="33" fill="none" xmlns="http://www.w3.org/2000/svg"><path d="M26.593 29.014v-6.028c0-.832.666-1.507 1.488-1.507s1.488.675 1.488 1.507v7.535c0 .832-.666 1.507-1.488 1.507H1.488A1.497 1.497 0 010 30.521v-7.535c0-.832.666-1.507 1.488-1.507.821 0 1.487.675 1.487 1.507v6.028h23.618zM13.66.433a1.474 1.474 0 012.103.023 1.52 1.52 0 01-.022 2.131l-9.888 9.806a1.474 1.474 0 01-2.104-.023 1.521 1.521 0 01.022-2.131L13.66.433z" fill="#858585"/><path d="M16.2 5.068l.056 17.536a1.498 1.498 0 01-1.483 1.512 1.497 1.497 0 01-1.493-1.502l-.068-21.099c-.004-1.332 1.575-2.014 2.52-1.09L25.79 10.25a1.52 1.52 0 01.038 2.13c-.57.6-1.512.617-2.104.04L16.2 5.067z" fill="#858585"/></svg>